<?xml version="1.0" encoding="UTF-8" standalone="no"?>
<!-- Created with Inkscape (http://www.inkscape.org/) -->

<svg
   width="210mm"
   height="210mm"
   viewBox="0 0 210 210"
   version="1.1"
   id="svg1078"
   inkscape:version="1.1 (1:1.1+202106032008+af4d65493e)"
   sodipodi:docname="commentçaroule-2.svg"
   xmlns:inkscape="http://www.inkscape.org/namespaces/inkscape"
   xmlns:sodipodi="http://sodipodi.sourceforge.net/DTD/sodipodi-0.dtd"
   xmlns="http://www.w3.org/2000/svg"
   xmlns:svg="http://www.w3.org/2000/svg">
  <sodipodi:namedview
     id="namedview1080"
     pagecolor="#ffffff"
     bordercolor="#666666"
     borderopacity="1.0"
     inkscape:pageshadow="2"
     inkscape:pageopacity="0.0"
     inkscape:pagecheckerboard="0"
     inkscape:document-units="mm"
     showgrid="false"
     inkscape:zoom="0.66368547"
     inkscape:cx="327.71548"
     inkscape:cy="412.09279"
     inkscape:window-width="1920"
     inkscape:window-height="1016"
     inkscape:window-x="0"
     inkscape:window-y="27"
     inkscape:window-maximized="1"
     inkscape:current-layer="layer1" />
  <defs
     id="defs1075" />
  <g
     inkscape:label="Calque 1"
     inkscape:groupmode="layer"
     id="layer1">
    <g
       id="g66"
       transform="matrix(0.59374621,0,0,0.62091066,-134.53019,88.064727)">
      <g
         id="g68"
         transform="translate(368.6404,-6.3636)">
        <path
           d="m 0,0 c 10.221,1.457 8.8,-5.14 18.341,-3.671 9.528,1.462 9.17,2.567 19.439,4.77 10.269,2.197 13.207,2.567 13.564,-0.37 0.371,-2.938 2.21,-4.765 -10.268,-8.072 -12.466,-3.296 -10.997,-7.702 -17.971,-7.702 -6.973,0 -11.009,4.77 -17.612,2.937 -6.604,-1.839 -1.827,-6.233 -10.998,-7.701 -9.171,-1.469 -10.268,1.098 -21.278,-0.741 -11.004,-1.827 -15.04,-4.764 -18.706,-6.233 -3.671,-1.468 -9.535,-2.197 -1.832,5.135 7.701,7.337 12.466,10.269 23.475,9.911 10.998,-0.371 10.639,1.462 13.565,4.764 C -7.344,-3.671 -5.146,-0.74 0,0"
           style="fill:#b01419;fill-opacity:1;fill-rule:nonzero;stroke:none"
           id="path70" />
      </g>
    </g>
    <path
       d="m 113.49583,97.987603 c 2.61664,-1.82424 6.09776,-5.92411 6.09776,-5.92411 0,0 1.74444,2.96237 5.44466,5.69375 3.70378,2.736357 14.37816,3.644747 18.73151,4.556247 4.36046,0.90839 5.44525,3.64412 5.44525,3.64412 0,-3.41811 -2.8292,-6.605867 -10.8905,-9.111857 -8.05416,-2.506 -10.23381,-3.6404 -13.71909,-6.146398 -3.48471,-2.505997 -3.04829,-6.379859 -4.35632,-7.288251 -1.30861,-0.912118 -2.61308,2.95864 -2.61308,2.95864 0,0 -1.74265,2.049626 -4.79212,5.693749 -3.04829,3.64413 -9.14547,5.01199 -12.41406,9.794247 -3.268562,4.78225 2.61605,8.19974 7.62132,10.93175 5.01242,2.73262 8.27684,3.87449 9.14965,5.92412 0.81461,1.9242 -3.54051,3.04369 -7.68367,4.49104 -1.04383,-1.26603 -2.2414,-2.41099 -3.64264,-3.35292 -12.194352,-8.19975 -19.642312,-5.01199 -19.642312,-5.01199 0,0 -5.18637,1.13812 -0.39366,2.50599 0,0 10.88991,-0.91212 16.987092,4.78225 1.07349,1.0034 2.00211,1.95339 2.86601,2.88787 -2.7437,1.78262 -4.6633,4.17436 -5.48147,5.5379 -1.085372,1.8236 2.39637,2.50661 6.96881,3.64412 1.76104,0.44023 3.19079,0.70847 4.29276,0.87425 0.23751,1.03196 0.42039,2.08997 0.50054,3.22562 0.43462,6.15012 -6.26758,14.97017 -14.159072,15.03287 -10.10258,0.0821 -17.38785,-0.39675 -21.1237,-13.89038 -2.39637,-8.65614 5.00883,-13.89414 5.00883,-13.89414 0,0 0.21978,-2.96236 -4.79271,-0.45636 -5.00527,2.50661 -7.40341,19.35813 2.18025,25.96525 9.58186,6.60462 17.63248,9.03673 28.533052,3.6435 6.69152,-3.31193 9.2298,-17.02166 4.68407,-26.99782 3.39683,-1.17043 7.32149,-2.47744 10.12574,-5.79869 3.26501,-3.87387 -0.8716,-8.88584 -7.40817,-12.75598 -6.53001,-3.87076 -8.05772,-3.87076 -8.27384,-5.69437 -0.21977,-1.82362 4.13662,-3.644127 6.74911,-5.464017 m -4.35335,33.708607 c -2.2699,-1.09528 -2.26573,-1.75779 -0.28144,-2.67797 0.73151,1.12508 1.33474,2.25452 1.79846,3.41561 -0.46134,-0.22779 -0.95652,-0.4669 -1.51702,-0.73764 m -4.1402,-61.727201 c 1.34366,3.656544 3.14745,3.434879 6.19516,4.343271 3.04888,0.911498 4.2631,2.94498 6.21949,4.087455 1.96351,1.13813 3.4758,1.556003 4.1402,-2.054594 0.45063,-2.448871 2.61246,-5.234277 -1.96354,-6.828153 -4.57303,-1.593879 -6.74969,-0.685486 -9.14606,-2.962366 -2.39637,-2.279363 -7.99716,-2.931939 -7.77748,-0.655682 0.21624,2.276259 1.65239,2.220377 2.33223,4.070069 m 62.7275,65.370731 c -2.18022,-15.03226 -16.55185,-19.13213 -23.0878,-19.58788 -6.53359,-0.45576 -13.28687,-0.22968 -11.32274,2.50599 0,0 6.09717,-3.18839 15.02711,1.36413 8.92935,4.55626 10.45349,6.15014 13.72206,11.6185 3.26441,5.46402 4.13663,16.62674 -6.10074,20.27025 -10.2344,3.64412 -19.59955,-3.41812 -22.2156,-10.02026 -2.61308,-6.60648 -1.30505,-12.52999 0.87163,-14.12447 2.17666,-1.59388 5.44464,-4.78227 -1.30446,-2.73203 -6.75328,2.05025 -6.53716,13.43902 -3.26859,18.67576 3.26859,5.23925 8.92996,13.21299 19.38345,12.52626 10.45408,-0.68114 20.47534,-5.46341 18.29568,-20.49625"
       style="fill:#565353;fill-opacity:1;fill-rule:nonzero;stroke:none;stroke-width:0.607176"
       id="path76" />
    <path
       style="fill:none;fill-opacity:1;stroke:#565353;stroke-width:4;stroke-linecap:butt;stroke-linejoin:miter;stroke-miterlimit:4;stroke-dasharray:none;stroke-opacity:1"
       d="m 8.3637814,55.525321 c -4.735346,5.082362 5.6867006,10.001557 5.6867006,10.001557 0,0 -6.5312916,6.323733 -4.1816201,6.916147 2.3496941,0.592312 21.4479831,3.673766 23.3425881,6.28975 19.887208,11.917081 21.488022,9.509953 28.842911,56.181895 l -10.681794,-8.14469 c 0,0 3.656322,19.99579 1.809502,26.2183 -1.846815,6.22251 -9.540407,18.34164 -9.540407,18.34164 l 42.191796,21.02016 c 0,0 5.31718,6.9659 16.447552,6.61205 11.13034,-0.35379 21.7764,-6.0645 21.7764,-6.0645 0,0 -3.34789,-17.65738 9.10592,-18.7976 12.45382,-1.14025 41.01263,5.89223 49.25126,2.3401 8.23863,-3.55208 16.67011,-17.95514 16.67011,-17.95514 0,0 -16.00493,-7.47163 -17.45011,-13.56195 -1.44517,-6.09031 3.47514,-26.81544 3.47514,-26.81544 0,0 -4.20495,-10.6125 -7.87616,-8.955 -3.67127,1.65749 -7.64432,5.83867 -7.64432,5.83867 0,0 1.69681,-19.378397 6.82452,-22.063397 5.12768,-2.684951 13.48521,-7.786511 13.48521,-7.786511 0,0 1.25874,-22.297594 4.13923,-26.660759 2.88044,-4.363169 4.28244,-6.000852 4.28244,-6.000852 0,0 -42.53696,-7.624094 -47.23615,-12.741182 C 146.38531,34.621512 116.33139,9.5224877 116.33139,9.5224877 l -12.77938,6.0770503 c 0,0 -1.63983,16.244913 -5.346222,17.663761 -3.70641,1.418842 -26.06767,16.163806 -29.21672,14.741192 -3.14905,-1.422615 -6.527241,-10.914646 -6.527241,-10.914646 0,0 -5.871561,-7.69626 -8.890937,-3.783202 -3.019383,3.913094 3.065058,9.60424 3.045337,12.213237 -0.01981,2.608997 -1.694255,10.242708 -4.597639,12.011314 C 49.115189,59.299826 8.3637534,55.525316 8.3637534,55.525316 Z"
       id="path54"
       sodipodi:nodetypes="ccscccsccscsscscscscscsccsscsssc" />
  </g>
</svg>
