<?xml version="1.0" encoding="UTF-8" standalone="no"?>
<!-- Created with Inkscape (http://www.inkscape.org/) -->

<svg
   width="200mm"
   height="200mm"
   viewBox="0 0 200 200"
   version="1.1"
   id="svg5"
   inkscape:version="1.1 (ce6663b3b7, 2021-05-25)"
   sodipodi:docname="logo.svg"
   xmlns:inkscape="http://www.inkscape.org/namespaces/inkscape"
   xmlns:sodipodi="http://sodipodi.sourceforge.net/DTD/sodipodi-0.dtd"
   xmlns="http://www.w3.org/2000/svg"
   xmlns:svg="http://www.w3.org/2000/svg">
  <sodipodi:namedview
     id="namedview7"
     pagecolor="#ffffff"
     bordercolor="#666666"
     borderopacity="1.0"
     inkscape:pageshadow="2"
     inkscape:pageopacity="0.0"
     inkscape:pagecheckerboard="0"
     inkscape:document-units="mm"
     showgrid="false"
     inkscape:zoom="0.9234072"
     inkscape:cx="323.25934"
     inkscape:cy="365.49423"
     inkscape:window-width="1920"
     inkscape:window-height="1016"
     inkscape:window-x="0"
     inkscape:window-y="0"
     inkscape:window-maximized="1"
     inkscape:current-layer="g2600" />
  <defs
     id="defs2" />
  <g
     inkscape:label="Calque 1"
     inkscape:groupmode="layer"
     id="layer1">
    <g
       id="g2600"
       transform="matrix(0.82690672,-0.19842091,0.19842091,0.82690672,1.6289497,34.3884)">
      <circle
         style="fill:none;fill-rule:evenodd;stroke:#000000;stroke-width:3.52783599;stroke-miterlimit:4;stroke-dasharray:none;stroke-opacity:1"
         id="path1152"
         cx="71.742966"
         cy="86.563644"
         r="19.815533" />
      <circle
         style="fill:none;fill-rule:evenodd;stroke:#000000;stroke-width:3.52783599;stroke-miterlimit:4;stroke-dasharray:none;stroke-opacity:1"
         id="path1152-3"
         cx="116.67656"
         cy="135.92294"
         r="19.815533" />
      <path
         style="fill:none;stroke:#000000;stroke-width:3.52783599;stroke-linecap:round;stroke-linejoin:miter;stroke-miterlimit:4;stroke-dasharray:none;stroke-opacity:1"
         d="m 97.07136,93.538636 c 33.68054,7.557944 48.64633,27.228374 48.64633,27.228374"
         id="path1338" />
      <path
         style="fill:none;stroke:#000000;stroke-width:3.52783599;stroke-linecap:round;stroke-linejoin:miter;stroke-miterlimit:4;stroke-dasharray:none;stroke-opacity:1"
         d="M 123.67035,66.169016 C 106.05266,58.375897 96.019299,63.325422 94.954657,66.708155 92.006282,76.076156 123.44519,90.361454 123.44519,90.361454"
         id="path1486"
         sodipodi:nodetypes="csc" />
    </g>
    <path
       style="fill:none;stroke:#000000;stroke-width:3;stroke-linecap:butt;stroke-linejoin:miter;stroke-miterlimit:4;stroke-dasharray:none;stroke-opacity:1"
       d="m 4.7271657,58.425314 c -4.43680946,4.834679 5.4431573,9.407059 5.4431573,9.407059 0,0 -6.1244297,6.020121 -3.9006594,6.562971 2.22377,0.54285 20.2863754,3.317104 22.0947154,5.774774 18.870879,11.115101 20.365848,8.82987 27.646561,52.864562 l -10.14835,-7.61737 c 0,0 3.596556,18.86229 1.896436,24.75336 -1.70012,5.89107 -8.88111,17.39393 -8.88111,17.39393 l 40.00516,19.55486 c 0,0 5.07243,6.54214 15.58384,6.12846 10.511404,-0.41369 20.527094,-5.88409 20.527094,-5.88409 0,0 -3.28852,-16.65558 8.46743,-17.82158 11.75596,-1.16599 38.78331,5.27316 46.54032,1.85896 7.75701,-3.4142 15.61875,-17.07974 15.61875,-17.07974 0,0 -15.1719,-6.9436 -16.58052,-12.6863 -1.40862,-5.74271 3.09129,-25.35517 3.09129,-25.35517 0,0 -4.04783,-9.99474 -7.50392,-8.40284 -3.45609,1.59189 -7.17925,5.56989 -7.17925,5.56989 0,0 1.46448,-18.317316 6.28904,-20.890196 4.82457,-2.57287 12.68282,-7.45154 12.68282,-7.45154 0,0 1.02985,-21.0717 3.71967,-25.21378 2.68982,-4.14208 4.00244,-5.69906 4.00244,-5.69906 0,0 -40.23557,-6.89823 -44.71104,-11.69836 -4.47547,-4.800129 -33.0441,-28.294587 -33.0441,-28.294587 l -12.028244,5.831722 c 0,0 -1.43306,15.356927 -4.92406,16.723656 -3.49101,1.366726 -24.5086,15.454679 -27.4934,14.133329 -2.98481,-1.32134 -6.24366,-10.26355 -6.24366,-10.26355 0,0 -5.60132,-7.228125 -8.42554,-3.510208 -2.82423,3.717918 2.96386,9.050428 2.96386,11.515078 0,2.46465 -1.52731,9.68754 -4.25728,11.37893 -2.72997,1.69139 -41.2514503,-1.58317 -41.2514503,-1.58317 z"
       id="path54"
       sodipodi:nodetypes="ccscccsccscsscscscscscsccsscsssc" />
  </g>
</svg>
